<svg width="16" height="16" viewBox="0 0 16 16" fill="none" xmlns="http://www.w3.org/2000/svg">
<path d="M12.894 8.48536C12.8845 8.48234 12.875 8.47932 12.5059 8.35318C12.1367 8.22705 11.4082 7.9779 10.7999 7.81511C10.1917 7.65232 9.72593 7.58344 9.31006 7.54499C8.89419 7.50654 8.54236 7.50061 7.95134 7.55374C7.36032 7.60687 6.54078 7.71925 6.0547 7.79697C5.56862 7.87469 5.44084 7.91433 5.14106 8.0343C4.84127 8.15427 4.37336 8.35336 4.11671 8.46696C3.86006 8.58057 3.82885 8.60267 3.75771 8.66337" stroke="currentColor" stroke-width="1.5" stroke-linecap="round"/>
<path d="M5.84523 5.565C5.78629 5.59311 5.40966 5.85476 4.8864 6.31767C4.60863 6.5634 4.35593 6.88476 4.14847 7.15148C3.48426 8.00544 3.33403 8.49113 3.32892 8.56688C3.32222 8.6662 3.67004 8.90106 4.23554 9.29666C4.90281 9.68165 5.35091 9.90769 5.4989 9.96909C5.56674 9.99849 5.61985 10.0243 5.68943 10.058" stroke="currentColor" stroke-width="1.5" stroke-linecap="round"/>
</svg>
