<svg width="16" height="16" viewBox="0 0 16 16" fill="none" xmlns="http://www.w3.org/2000/svg">
<path d="M7.18237 9.63997C7.18591 9.63069 7.18946 9.62141 7.32138 9.25428C7.45329 8.88715 7.71348 8.16245 7.966 7.58568C8.21852 7.00891 8.45548 6.60203 8.68506 6.25315C8.91463 5.90426 9.12964 5.62571 9.5401 5.19717C9.95056 4.76863 10.55 4.19855 10.9141 3.86734C11.2783 3.53612 11.389 3.46105 11.6699 3.30175C11.9508 3.14245 12.3984 2.90119 12.6474 2.77162C12.8963 2.64204 12.9331 2.63146 13.0249 2.61377" stroke="#0321ED" stroke-width="1.5" stroke-linecap="round"/>
<path d="M9.30127 2.31035C9.36002 2.28186 9.79955 2.15096 10.4878 2.03117C10.8532 1.96758 11.262 1.97078 11.5999 1.97522C12.6816 1.98943 13.1549 2.17527 13.2172 2.21857C13.299 2.27534 13.2653 2.69367 13.2214 3.38241C13.1056 4.14402 13.0024 4.63519 12.958 4.78913C12.9386 4.86049 12.9256 4.91812 12.9085 4.99347" stroke="#0321ED" stroke-width="1.5" stroke-linecap="round"/>
<path d="M6.55307 5.13864C6.35911 5.08389 5.71001 4.94038 5.08207 4.94442C4.8178 4.94612 4.43346 5.10783 3.98139 5.30194C3.68704 5.42832 3.43415 5.71305 3.07944 6.15386C2.88226 6.3989 2.69585 6.72233 2.56176 6.97204C2.3399 7.38522 2.28093 7.6739 2.26328 8.00026C2.25087 8.22976 2.27431 8.59029 2.32329 8.95978C2.37227 9.32926 2.45704 9.6971 2.56398 10.0407C2.67092 10.3842 2.79745 10.6924 2.95427 10.9754C3.11109 11.2584 3.29436 11.507 3.50721 11.742C3.72006 11.977 3.95693 12.191 4.23628 12.4035C4.51562 12.6161 4.83028 12.8207 5.07278 12.9603C5.31528 13.1 5.4761 13.1684 5.84131 13.2599C6.20652 13.3514 6.77125 13.4638 7.38098 13.5336C7.99071 13.6034 8.62834 13.6271 9.01166 13.6319C9.50473 13.638 9.87797 13.5212 10.4006 13.3201C10.6682 13.2172 10.9194 13.0607 11.2137 12.838C11.8582 12.3502 12.2096 11.9611 12.3218 11.8062C12.5029 11.5565 12.6627 11.1027 12.7925 10.6374C12.8668 10.3714 12.8644 10.1103 12.851 9.81152C12.8419 9.60698 12.7229 9.31628 12.52 8.89442C12.0519 8.1883 11.7552 7.8841 11.5355 7.68379C11.4411 7.5953 11.3813 7.53355 11.3198 7.46993" stroke="#0321ED" stroke-width="1.5" stroke-linecap="round"/>
</svg>
