<svg width="16" height="16" viewBox="0 0 16 16" fill="none" xmlns="http://www.w3.org/2000/svg">
<path d="M9.39252 1.79893C9.39328 1.80653 9.39404 1.81412 9.43651 2.21297C9.47898 2.61182 9.56313 3.40169 9.60813 4.04678C9.65313 4.69187 9.65642 5.16825 10.2288 5.40802C10.8011 5.64778 11.9424 5.63649 12.5314 5.60024C13.1204 5.56399 13.1226 5.50312 13.0177 5.22284C12.9127 4.94256 12.7006 4.44471 12.4768 3.99411C12.253 3.5435 12.024 3.15522 11.733 2.73266C11.4421 2.31009 11.0961 1.865 10.901 1.61637C10.7059 1.36774 10.6722 1.32906 9.48399 1.31477C8.29574 1.30049 5.95393 1.31178 4.73416 1.34023C3.51438 1.36868 3.48759 1.41395 3.40429 2.60934C3.321 3.80473 3.182 6.14886 3.07812 7.57507C2.97423 9.00127 2.90967 9.43851 2.8873 10.0856C2.86493 10.7326 2.8867 11.5763 2.91992 12.1604C2.99726 13.5205 3.07513 13.8909 3.11447 13.9646C3.15643 14.0432 3.36297 14.0955 3.66964 14.1794C3.83351 14.2243 4.01965 14.2522 5.52871 14.3451C7.03777 14.438 9.86553 14.5896 11.3419 14.6662C12.8182 14.7427 12.8574 14.7397 12.9173 13.2994C12.9773 11.8592 13.0568 8.98188 13.0941 7.45197C13.1313 5.92206 13.1238 5.82676 13.1133 5.72336" stroke="#0321ED" stroke-width="1.5" stroke-linecap="round"/>
</svg>
