<svg width="16" height="16" viewBox="0 0 16 16" fill="none" xmlns="http://www.w3.org/2000/svg">
<path d="M5.53037 1.43604C4.61779 1.51871 4.18352 1.67281 3.84807 1.82658C3.41689 2.02423 3.04515 2.2911 2.71178 2.6109C2.25157 3.05237 1.96752 3.5028 1.82651 3.76924C1.69224 4.02295 1.61388 4.37327 1.47166 5.54366M10.4358 14.6839C11.4271 14.6388 11.7198 14.5796 12.0458 14.4868C12.7289 14.2924 13.2107 14.0732 13.5064 13.8968C14.1769 13.4966 14.3617 13.1643 14.5466 12.7728C14.6191 12.6192 14.6615 12.3603 14.7198 11.1376M14.831 6.38741C14.8335 5.04709 14.7866 4.61998 14.7233 4.2864C14.6154 3.71824 14.461 3.41556 14.3373 3.21827C14.1491 2.91807 13.8101 2.61106 13.4082 2.31472C12.9812 1.99982 12.5901 1.87305 11.6877 1.73426" stroke="#0321ED" stroke-width="1.5" stroke-linecap="round"/>
<path d="M5.97532 14.7098C5.23927 14.6713 4.75241 14.598 4.28623 14.4802C3.68913 14.3293 3.1365 14.1252 2.82214 13.9725C2.41041 13.7724 2.14795 13.6163 1.9325 13.3367C1.52772 12.8116 1.26249 12.4014 1.19346 11.4478" stroke="#0321ED" stroke-width="1.5" stroke-linecap="round"/>
<path d="M7.90668 6.44667C7.942 6.44042 8.25302 6.45431 8.72824 6.55698C9.05043 6.62659 9.17008 6.79491 9.31722 6.96205C9.44865 7.11134 9.51825 7.29047 9.56499 7.4343C9.70587 7.86778 9.61652 8.32628 9.55214 8.54794C9.46926 8.83328 9.20666 9.03601 8.91503 9.2495C8.57991 9.49481 8.1958 9.54938 7.82301 9.55558C7.55098 9.56009 7.31953 9.41122 7.05431 9.20601C6.65976 8.90073 6.55334 8.53684 6.49316 8.29143C6.37925 7.82689 6.53358 7.52715 6.74391 7.1366C6.97182 6.71341 7.31207 6.57668 7.53747 6.4914C7.81618 6.43626 7.89711 6.43866 7.97553 6.4532C8.02509 6.46375 8.09449 6.48073 8.16949 6.49823" stroke="#0321ED" stroke-width="1.5" stroke-linecap="round"/>
</svg>
