<svg width="16" height="16" viewBox="0 0 16 16" fill="none" xmlns="http://www.w3.org/2000/svg">
<path d="M8.41162 1.62755C8.41046 1.62755 8.22349 1.63814 7.7188 1.6956C7.39913 1.732 6.95591 1.82528 6.68116 1.88483C6.4064 1.94438 6.31496 1.97816 5.95508 2.19797C5.5952 2.41779 4.96965 2.82263 4.34885 3.3267C3.72804 3.83076 3.13094 4.42179 2.73778 4.84226C2.34462 5.26274 2.17352 5.49475 2.07432 5.63458C1.94852 5.8119 1.87482 6.01556 1.74963 6.52069C1.66463 6.86367 1.59747 7.39638 1.56345 7.82576C1.52942 8.25515 1.54627 8.5686 1.62437 9.00852C1.70248 9.44844 1.84134 10.0053 1.99413 10.4879C2.14693 10.9705 2.30947 11.362 2.43332 11.6271C2.62036 12.0274 2.7673 12.1999 2.88017 12.3083C2.94342 12.3691 3.02847 12.431 3.58882 12.7317C4.14918 13.0324 5.18473 13.5672 5.91904 13.8926C6.65336 14.2179 7.05504 14.3176 7.60296 14.3909C8.15087 14.4643 8.83284 14.5083 9.31014 14.5184C9.78744 14.5284 10.0394 14.5031 10.2269 14.4757C10.5316 14.4313 10.8267 14.3001 11.2084 14.0724C11.4193 13.9466 11.6355 13.7535 11.8803 13.4936C12.125 13.2337 12.3842 12.9009 12.6575 12.4292C12.9308 11.9574 13.2103 11.3567 13.4868 10.6432C13.7633 9.92961 14.0283 9.12136 14.1921 8.45806C14.3559 7.79475 14.4105 7.30087 14.4371 6.98423C14.4637 6.66758 14.4607 6.54314 14.4034 6.26077C14.346 5.97841 14.2344 5.5419 14.0644 5.11822C13.8943 4.69454 13.6694 4.29692 13.5034 4.02831C13.3374 3.75971 13.2372 3.63216 13.0993 3.49445C12.9614 3.35673 12.7888 3.2127 12.3843 2.96774C11.9798 2.72278 11.3485 2.38126 10.8088 2.12844C10.2692 1.87562 9.84017 1.72185 9.52884 1.62503C9.2175 1.52821 9.03683 1.493 8.73434 1.48271C8.43186 1.47241 8.01305 1.48809 7.71099 1.51226C7.23449 1.55037 7.03412 1.61072 6.93863 1.65275C6.74751 1.73686 6.42083 1.94132 6.09621 2.16038C5.98005 2.23924 5.96248 2.25255 5.94359 2.26553C5.92469 2.27851 5.905 2.29076 5.86861 2.30733" stroke="#0321ED" stroke-width="1.5" stroke-linecap="round"/>
<path d="M8.49551 14.2206C8.46663 14.2194 8.29641 14.1478 7.90841 13.9239C7.66731 13.7847 7.3705 13.5385 7.10135 13.302C6.83221 13.0655 6.60844 12.8321 6.41809 12.6113C6.22774 12.3905 6.0776 12.1895 5.93733 11.9683C5.79705 11.7471 5.6712 11.5119 5.57132 11.2589C5.47144 11.006 5.40134 10.7425 5.34622 10.0578C5.29109 9.37314 5.25306 8.27523 5.28048 7.49735C5.30789 6.71947 5.40191 6.29488 5.56251 5.83363C5.72311 5.37237 5.94743 4.88732 6.14652 4.51046C6.3456 4.13361 6.51264 3.87966 6.66265 3.60482C6.81265 3.32998 6.94055 3.04195 7.03413 2.85038C7.31607 2.40155 7.49863 2.19142 7.54709 2.11313C7.56715 2.07873 7.57799 2.05516 7.6102 1.97363" stroke="#0321ED" stroke-width="1.5" stroke-linecap="round"/>
<path d="M7.54724 1.98828C7.58271 2.00721 7.6666 2.07677 7.83698 2.30056C7.97589 2.483 8.20286 2.81895 8.53107 3.54951C8.85927 4.28007 9.27711 5.39856 9.5297 6.17687C9.78229 6.95519 9.85698 7.35945 9.91259 8.12352C9.9682 8.88758 10.0025 9.9992 10.0012 10.7224C10 11.4455 9.96226 11.7465 9.89499 12.0741C9.82771 12.4017 9.73206 12.7467 9.63675 13.0355C9.54143 13.3243 9.44935 13.5464 9.38772 13.6838C9.3261 13.8213 9.29772 13.8673 9.24099 13.9501" stroke="#0321ED" stroke-width="1.5" stroke-linecap="round"/>
<path d="M3.19128 4.74392C3.19573 4.74807 3.20019 4.75222 4.14979 4.82746C5.09939 4.90271 6.994 5.04892 8.67557 5.04877C10.3571 5.04862 11.7683 4.89768 12.5086 4.81665C13.2488 4.73563 13.2755 4.7291 13.3436 4.70117" stroke="#0321ED" stroke-width="1.5" stroke-linecap="round"/>
<path d="M14.0535 7.13574C14.0507 7.14299 14.0298 7.16844 13.7733 7.35481C13.5398 7.52446 13.0823 7.82642 12.7795 8.01778C12.4766 8.20914 12.3387 8.27561 11.7072 8.46339C11.0758 8.65118 9.95499 8.95826 8.49969 9.22425C7.04439 9.49024 5.28852 9.70583 4.2746 9.81412C3.26068 9.92242 3.04191 9.91689 2.81629 9.89176C2.59067 9.86662 2.36482 9.82206 2.22031 9.79211C2.07581 9.76216 2.01949 9.74816 1.91369 9.72737" stroke="#0321ED" stroke-width="1.5" stroke-linecap="round"/>
<path d="M13.2728 10.8369C13.2374 10.8625 13.1184 10.9402 12.7019 11.1524C12.3912 11.3107 11.8581 11.529 10.5447 11.8264C9.23134 12.1238 7.14855 12.4827 5.98741 12.6762C4.82626 12.8696 4.64987 12.8867 4.46814 12.9042" stroke="#0321ED" stroke-width="1.5" stroke-linecap="round"/>
</svg>
