<svg width="16" height="16" viewBox="0 0 16 16" fill="none" xmlns="http://www.w3.org/2000/svg">
<path d="M9.06175 14.7382C9.56368 14.709 9.84483 14.7219 10.4696 14.6653C11.3822 14.5827 11.8165 14.4286 12.1519 14.2748C12.5831 14.0771 12.9548 13.8103 13.2882 13.4905C13.7484 13.049 14.0325 12.5986 14.1735 12.3321C14.3078 12.0784 14.3861 11.7281 14.5283 10.5577C14.6454 9.59429 14.7372 7.86833 14.7927 6.71877C14.8482 5.56922 14.8349 5.04521 14.8065 4.65372C14.7375 3.70012 14.4723 3.28989 14.0675 2.76473C13.852 2.48522 13.5896 2.32903 13.1779 2.129C12.8635 1.97627 12.3109 1.77213 11.7138 1.62128C11.1167 1.47042 10.4857 1.39248 9.34058 1.36738C8.1955 1.34228 6.55545 1.3724 5.56419 1.4175C4.57294 1.4626 4.28017 1.52176 3.95424 1.61454C3.27114 1.80899 2.78928 2.02813 2.49363 2.2046C1.8231 2.60481 1.63829 2.93703 1.45341 3.32858C1.38091 3.48212 1.33852 3.74109 1.2802 4.96373C1.22189 6.18637 1.17152 8.37363 1.16902 9.71395C1.16651 11.0543 1.2134 11.4814 1.27673 11.815C1.3846 12.3831 1.53896 12.6858 1.66268 12.8831C1.85094 13.1833 2.18989 13.4903 2.59176 13.7866C3.01882 14.1015 3.40985 14.2283 4.31225 14.3671C5.10157 14.4649 6.5637 14.6183 7.52649 14.6897C8.48927 14.761 8.90841 14.7456 9.34579 14.7274" stroke="#0321ED" stroke-width="1.5" stroke-linecap="round"/>
<path d="M7.9843 1.39941C7.9843 1.40054 7.9843 1.40166 8.02894 2.65769C8.07358 3.91373 8.16287 6.42464 8.14317 8.53683C8.12347 10.649 7.99209 12.2864 7.84813 13.9947" stroke="#0321ED" stroke-width="1.5" stroke-linecap="round"/>
<path d="M1.92674 8.19914C1.92674 8.19808 2.22807 8.12378 3.44413 7.99839C4.35886 7.94676 5.87786 7.91948 6.68842 7.90864C7.49898 7.89781 7.55507 7.90424 7.61287 7.91087" stroke="#0321ED" stroke-width="1.5" stroke-linecap="round"/>
<path d="M14.6773 8.01178C14.6714 8.01273 14.6654 8.01367 13.9785 8.01224C13.2915 8.01081 11.9238 8.00697 11.002 8.01648C10.0801 8.02598 9.64559 8.04895 9.38742 8.06244C9.12925 8.07593 9.06064 8.07923 8.87328 8.09105" stroke="#0321ED" stroke-width="1.5" stroke-linecap="round"/>
</svg>
