<svg width="16" height="16" viewBox="0 0 16 16" fill="none" xmlns="http://www.w3.org/2000/svg">
<path d="M14.6877 6.98905C14.6585 6.48712 14.6714 6.20597 14.6148 5.58117C14.5321 4.66859 14.378 4.23432 14.2243 3.89887C14.0266 3.46769 13.7598 3.09595 13.44 2.76258C12.9985 2.30237 12.548 2.01832 12.2816 1.87731C12.0279 1.74304 11.6776 1.66468 10.5072 1.52246C9.54378 1.4054 7.81781 1.31358 6.66826 1.25808C5.51871 1.20257 4.9947 1.21592 4.6032 1.24426C3.6496 1.31329 3.23937 1.57852 2.71422 1.9833C2.4347 2.19875 2.27852 2.46121 2.07849 2.87294C1.92576 3.1873 1.72162 3.73993 1.57076 4.33703C1.41991 4.93412 1.34196 5.56513 1.31687 6.71021C1.29177 7.8553 1.32189 9.49535 1.36698 10.4866C1.41208 11.4779 1.47125 11.7706 1.56403 12.0966C1.75847 12.7797 1.97762 13.2615 2.15408 13.5572C2.5543 14.2277 2.88651 14.4125 3.27806 14.5974C3.4316 14.6699 3.69058 14.7123 4.91322 14.7706C6.13585 14.8289 8.32312 14.8793 9.66344 14.8818C11.0038 14.8843 11.4309 14.8374 11.7644 14.7741C12.3326 14.6662 12.6353 14.5118 12.8326 14.3881C13.1328 14.1999 13.4398 13.8609 13.7361 13.459C14.051 13.032 14.1778 12.6409 14.3166 11.7385C14.4144 10.9492 14.5678 9.4871 14.6391 8.52431C14.7105 7.56153 14.6951 7.14239 14.6769 6.70501" stroke="#0321ED" stroke-width="1.5" stroke-linecap="round"/>
<path d="M14.6509 8.0351C14.6498 8.0351 14.6487 8.0351 13.3927 8.07974C12.1366 8.12438 9.62572 8.21366 7.51352 8.19397C5.40133 8.17427 3.76394 8.04288 2.05564 7.89893" stroke="#0321ED" stroke-width="1.5" stroke-linecap="round"/>
</svg>
