<svg width="16" height="16" viewBox="0 0 16 16" fill="none" xmlns="http://www.w3.org/2000/svg">
<path d="M6.93825 1.36288C6.43632 1.39207 6.15517 1.37914 5.53037 1.43574C4.6178 1.51841 4.18352 1.67252 3.84808 1.82629C3.41689 2.02394 3.04515 2.29081 2.71178 2.61061C2.25157 3.05208 1.96752 3.50251 1.82652 3.76894C1.69224 4.02266 1.61388 4.37298 1.47167 5.54337C1.3546 6.50678 1.26279 8.23275 1.20728 9.3823C1.15178 10.5319 1.16512 11.0559 1.19346 11.4474C1.26249 12.401 1.52772 12.8112 1.93251 13.3363C2.14796 13.6159 2.41042 13.772 2.82214 13.9721C3.1365 14.1248 3.68913 14.3289 4.28623 14.4798C4.88332 14.6307 5.51433 14.7086 6.65942 14.7337C7.8045 14.7588 9.44455 14.7287 10.4358 14.6836C11.4271 14.6385 11.7198 14.5793 12.0458 14.4865C12.7289 14.2921 13.2107 14.0729 13.5064 13.8965C14.1769 13.4963 14.3617 13.164 14.5466 12.7725C14.6191 12.619 14.6615 12.36 14.7198 11.1373C14.7781 9.91471 14.8285 7.72744 14.831 6.38712C14.8335 5.0468 14.7866 4.61969 14.7233 4.28611C14.6154 3.71795 14.461 3.41527 14.3373 3.21798C14.1491 2.91778 13.8101 2.61077 13.4082 2.31443C12.9812 1.99953 12.5901 1.87276 11.6877 1.73397C10.8984 1.63615 9.4363 1.48274 8.47351 1.41141C7.51073 1.34009 7.09159 1.3555 6.65421 1.37371" stroke="#0321ED" stroke-width="1.5" stroke-linecap="round"/>
<path d="M7.9843 1.39941C7.9843 1.40054 7.9843 1.40166 8.02894 2.65769C8.07358 3.91373 8.16287 6.42464 8.14317 8.53683C8.12347 10.649 7.99209 12.2864 7.84813 13.9947" stroke="#0321ED" stroke-width="1.5" stroke-linecap="round"/>
<path d="M1.92674 6.70159C1.92674 6.70052 2.22807 6.62622 3.44413 6.50083C4.35886 6.4492 5.87786 6.42192 6.68842 6.41108C7.49898 6.40025 7.55507 6.40668 7.61287 6.41332" stroke="#0321ED" stroke-width="1.5" stroke-linecap="round"/>
<path d="M14.6773 9.79743C14.6714 9.79837 14.6654 9.79932 13.9785 9.79788C13.2915 9.79645 11.9238 9.79261 11.002 9.80212C10.0801 9.81163 9.64559 9.8346 9.38742 9.84809C9.12925 9.86157 9.06064 9.86488 8.87328 9.8767" stroke="#0321ED" stroke-width="1.5" stroke-linecap="round"/>
</svg>
