<svg width="16" height="16" viewBox="0 0 16 16" fill="none" xmlns="http://www.w3.org/2000/svg">
<path d="M14.8589 11.1226C14.5534 11.5669 13.6382 12.7095 12.418 13.5142C10.9274 14.4972 9.63954 14.5187 7.72258 14.5997C6.15107 14.6662 4.06722 13.4662 3.13948 12.7835C2.28795 12.1569 1.61074 10.7192 1.26505 9.68196C1.05616 9.05525 1.15864 7.96903 1.23156 6.81133C1.34117 5.07131 2.73229 3.25612 3.37954 2.5954C4.39963 1.55408 5.18994 1.57725 6.09255 1.52871C6.40099 1.51213 6.60096 1.64883 6.75963 1.79279C7.07438 2.07833 6.47426 4.04124 6.26574 5.72425C6.14494 6.69921 6.81853 7.62167 7.45563 8.32085C8.38531 9.34111 10.1933 9.82657 11.558 10.2853C12.7485 10.6855 13.7189 10.69 13.984 10.7779C14.0988 10.842 14.1739 10.9457 14.227 11.0566C14.2801 11.1676 14.3091 11.2825 14.3555 11.5579" stroke="#0321ED" stroke-width="1.5" stroke-linecap="round"/>
</svg>
