<svg width="16" height="16" viewBox="0 0 16 16" fill="none" xmlns="http://www.w3.org/2000/svg">
<path d="M8.41163 1.62755C8.41047 1.62755 8.22349 1.63814 7.71881 1.6956C7.39913 1.732 6.95591 1.82528 6.68116 1.88483C6.40641 1.94438 6.31496 1.97816 5.95508 2.19797C5.5952 2.41779 4.96966 2.82263 4.34885 3.3267C3.72805 3.83076 3.13094 4.42179 2.73778 4.84226C2.34463 5.26274 2.17352 5.49475 2.07432 5.63458C1.94852 5.8119 1.87482 6.01556 1.74964 6.52069C1.66463 6.86367 1.59748 7.39638 1.56345 7.82576C1.52943 8.25515 1.54627 8.5686 1.62438 9.00852C1.70248 9.44844 1.84134 10.0053 1.99414 10.4879C2.14694 10.9705 2.30947 11.362 2.43332 11.6271C2.62036 12.0274 2.76731 12.1999 2.88017 12.3083C2.94342 12.3691 3.02847 12.431 3.58882 12.7317C4.14918 13.0324 5.18474 13.5672 5.91905 13.8926C6.65336 14.2179 7.05505 14.3176 7.60296 14.3909C8.15088 14.4643 8.83285 14.5083 9.31015 14.5184C9.78744 14.5284 10.0394 14.5031 10.2269 14.4757C10.5316 14.4313 10.8267 14.3001 11.2084 14.0724C11.4193 13.9466 11.6355 13.7535 11.8803 13.4936C12.125 13.2337 12.3842 12.9009 12.6575 12.4292C12.9308 11.9574 13.2103 11.3567 13.4868 10.6432C13.7633 9.92961 14.0283 9.12136 14.1921 8.45806C14.3559 7.79475 14.4105 7.30087 14.4371 6.98423C14.4637 6.66758 14.4607 6.54314 14.4034 6.26077C14.346 5.97841 14.2344 5.5419 14.0644 5.11822C13.8944 4.69454 13.6694 4.29692 13.5034 4.02831C13.3374 3.75971 13.2372 3.63216 13.0993 3.49445C12.9614 3.35673 12.7888 3.2127 12.3843 2.96774C11.9798 2.72278 11.3485 2.38126 10.8088 2.12844C10.2692 1.87562 9.84017 1.72185 9.52884 1.62503C9.21751 1.52821 9.03683 1.493 8.73435 1.48271C8.43187 1.47241 8.01306 1.48809 7.71099 1.51226C7.23449 1.55037 7.03413 1.61072 6.93863 1.65275C6.74751 1.73686 6.42083 1.94132 6.09622 2.16038C5.98005 2.23924 5.96249 2.25255 5.94359 2.26553C5.92469 2.27851 5.905 2.29076 5.86862 2.30733" stroke="#0321ED" stroke-width="1.5" stroke-linecap="round"/>
<path d="M6.07192 5.99991C6.09804 5.93537 6.2601 5.71795 7.1296 5.17526C7.53341 4.92322 7.9088 4.90272 8.85443 4.88687C9.11439 4.88252 9.23989 4.97014 9.36116 5.06204C9.72352 5.33666 9.88711 6.15625 9.88663 6.80436C9.8862 7.38569 9.05118 8.13186 8.59746 8.63816C8.42649 8.93864 8.28802 9.38624 8.22294 9.86663C8.21498 9.98377 8.21498 10.0888 8.21498 10.1969" stroke="#0321ED" stroke-width="1.5" stroke-linecap="round"/>
<path d="M8.22607 12.2656H8.22014" stroke="#0321ED" stroke-width="1.5" stroke-linecap="round"/>
</svg>
