<svg width="16" height="16" viewBox="0 0 16 16" fill="none" xmlns="http://www.w3.org/2000/svg">
<path d="M8.97937 2.24344C8.67467 2.14524 8.06987 1.99493 7.24847 2.00013C6.54451 2.00459 5.96591 2.19921 5.36063 2.51666C4.16079 3.14593 3.34615 3.87291 3.03995 4.17323C2.70929 4.49754 2.5092 4.89185 2.33228 5.33339C1.80796 6.64196 2.00243 7.56342 2.24816 8.41917C2.48192 9.23321 2.97453 9.95226 3.3183 10.4591C3.85307 11.2475 4.74554 11.7179 5.88678 12.1004C6.68157 12.3667 7.26262 12.2763 7.53022 12.2525C8.67747 12.1507 9.67042 11.4833 10.0584 11.1541C10.4992 10.78 10.8445 10.1928 11.1806 9.58912C11.5977 8.84003 11.7848 8.07342 11.8923 7.35783C12.0393 6.38021 11.9368 5.69507 11.8088 5.30829C11.5521 4.53239 11.1457 3.81874 10.7794 3.32808C10.0069 2.51145 9.55151 2.26942 8.88693 2.10411C8.74479 2.08063 8.65846 2.07893 8.56952 2.07719" stroke="#0321ED" stroke-width="1.5" stroke-linecap="round"/>
<path d="M10.6198 10.6572C10.6274 10.6687 10.635 10.6801 11.1586 11.1462C11.6822 11.6122 12.7216 12.5325 13.861 13.547" stroke="#0321ED" stroke-width="1.5" stroke-linecap="round"/>
</svg>
