<svg width="16" height="16" viewBox="0 0 16 16" fill="none" xmlns="http://www.w3.org/2000/svg">
<path d="M8.12047 13.8797C8.1676 13.8659 8.21473 13.8521 8.83812 13.7835C9.4615 13.7149 10.6597 13.5919 11.3876 13.4983C12.3413 13.3756 12.613 13.2581 12.713 13.2043C12.8231 13.1451 12.9592 13.0178 13.1474 12.7937C13.4084 12.4829 13.5687 12.0625 13.7122 11.6507C13.7889 11.4305 13.8438 11.1778 13.9371 10.2496C14.0304 9.32134 14.1529 7.72268 14.2017 6.71335C14.2505 5.70402 14.2218 5.33246 14.1888 5.07237C14.1381 4.67213 14.0287 4.41414 13.8489 4.08097C13.731 3.86233 13.5248 3.5622 13.3489 3.33235C13.173 3.10249 13.025 2.95691 12.7814 2.80204C12.5378 2.64717 12.2029 2.48741 12.0001 2.3971C11.7973 2.30679 11.7367 2.29075 10.9077 2.23825C10.0787 2.18575 8.48316 2.09726 7.2318 2.10432C5.98044 2.11138 5.12158 2.21668 4.53762 2.32464C3.95367 2.43259 3.67063 2.54001 3.48167 2.62382C3.19905 2.74916 3.05238 2.88243 2.94381 2.98355C2.87747 3.04534 2.69338 3.35656 2.40314 3.88888C2.27062 4.13193 2.2033 4.33843 2.09733 4.77606C1.99137 5.2137 1.85779 5.88092 1.77612 6.66932C1.69444 7.45772 1.66872 8.34708 1.68782 9.11632C1.70692 9.88557 1.77163 10.5077 1.88339 11.0845C1.99515 11.6613 2.15201 12.1737 2.26613 12.4994C2.4997 13.166 2.74216 13.3498 3.05362 13.5329C3.16181 13.5965 3.31635 13.642 3.62974 13.7183C3.94313 13.7947 4.41695 13.8885 4.94032 13.9626C5.46369 14.0367 6.02225 14.0883 6.4631 14.1007C7.21017 14.0848 7.63263 14.0327 7.84549 13.9895C7.95139 13.9692 8.05299 13.9522 8.16259 13.933" stroke="#0321ED" stroke-width="1.5" stroke-linecap="round"/>
<path d="M6.86975 7.09682C6.87689 7.10137 7.29394 7.1132 8.22693 7.08202C8.74785 7.06461 9.35988 6.95027 9.76452 6.87592C10.6029 6.72189 10.7713 6.57097 10.952 6.40314C11.1302 6.23761 11.2078 6.00023 11.2511 5.77693C11.305 5.49957 11.1228 5.30183 10.9913 5.12446C10.825 4.90023 10.6271 4.84003 10.251 4.72648C9.89224 4.61817 9.60724 4.70762 9.42078 4.77649C9.35682 4.80012 9.28584 4.92594 9.1775 5.08687C9.07563 5.23819 8.99973 5.54366 8.91112 6.11185C8.85624 6.46378 8.86139 6.95501 8.92831 7.73694C8.99524 8.51887 9.14427 9.57921 9.24486 10.2092C9.37275 11.0102 9.46145 11.2188 9.50468 11.2905C9.54406 11.3558 9.61206 11.3813 9.6804 11.3973C9.96721 11.4644 10.3547 11.3066 10.653 11.1738C10.8922 11.0673 10.9665 10.8951 11.0615 10.629C11.1939 10.2583 11.0908 10.0089 11.0157 9.80682C10.921 9.55206 10.4815 9.34604 9.86716 9.09411C9.7019 9.02634 9.57008 9.00223 9.32108 8.97268C9.07208 8.94312 8.70654 8.91771 8.01009 8.98816C7.31364 9.0586 6.29737 9.22567 5.75334 9.31784C5.16745 9.41711 5.09212 9.45518 5.03032 9.50004C4.90579 9.59045 4.85854 9.81861 4.81859 10.3007C4.75045 11.1227 4.9815 11.2752 5.09761 11.4138C5.20474 11.5417 5.36551 11.531 5.74177 11.5197C6.1863 11.5063 6.42691 11.2844 6.59879 11.0642C6.80405 10.8012 6.91379 10.4323 7.00797 9.87915C7.07542 9.48295 7.08873 8.83906 7.07367 8.18938C7.0586 7.5397 6.99072 6.90036 6.90199 6.33763C6.81326 5.77489 6.70575 5.30813 6.64352 5.04933C6.58129 4.79054 6.56759 4.75386 6.54583 4.72408C6.39063 4.51179 5.612 4.63843 5.21414 4.76863C4.75607 4.91853 4.6617 5.24195 4.62298 5.36839C4.52596 5.68524 4.71474 6.15464 4.78965 6.31467C4.85702 6.45857 5.15896 6.63003 5.54092 6.78277C5.69857 6.82148 5.9516 6.87275 6.13622 6.89999C6.32084 6.92724 6.4294 6.9289 6.54875 6.93001" stroke="#0321ED" stroke-width="1.5" stroke-linecap="round"/>
</svg>
