<svg width="16" height="16" viewBox="0 0 16 16" fill="none" xmlns="http://www.w3.org/2000/svg">
<path d="M7.74831 4.95378C7.52116 4.95256 6.98673 5.01098 6.29032 5.38633C5.47327 5.8267 5.0804 6.608 4.88725 7.02433C4.64722 7.54171 4.83866 8.24637 5.00538 8.74619C5.28729 9.59133 5.64558 10.2399 5.95621 10.5762C6.33106 10.9819 7.02287 11.0462 8.75776 11.0714C9.63264 11.0841 10.0782 10.7409 10.5329 10.293C11.1043 9.7303 11.1868 9.11725 11.2225 8.1959C11.2742 6.86248 10.701 6.18607 10.3114 5.71252C9.92372 5.24116 9.21614 5.07109 8.63458 4.94545C8.48103 4.93117 8.29986 4.92547 8.05859 4.92854C7.81732 4.93161 7.52143 4.94361 7.19968 4.95855" stroke="#0321ED" stroke-width="1.5" stroke-linecap="round"/>
<path d="M7.94049 2.32711C7.94049 2.32195 7.94049 2.31678 7.94685 2.1718C7.95322 2.02682 7.96594 1.74217 7.96473 1.33496" stroke="#0321ED" stroke-width="1.5" stroke-linecap="round"/>
<path d="M12.3186 3.92233C12.3186 3.92088 12.3186 3.91942 12.3933 3.76148C12.468 3.60353 12.6175 3.28914 12.7818 2.93701" stroke="#0321ED" stroke-width="1.5" stroke-linecap="round"/>
<path d="M13.238 8.20466C13.2476 8.20298 13.2572 8.20131 13.3393 8.19601C13.4214 8.19071 13.5757 8.18184 13.6987 8.17778C13.8217 8.17372 13.9087 8.17474 13.9983 8.15771" stroke="#0321ED" stroke-width="1.5" stroke-linecap="round"/>
<path d="M12.1667 12.5728C12.1667 12.5741 12.1667 12.5755 12.1779 12.6058C12.1891 12.636 12.2115 12.695 12.2771 12.8077C12.3426 12.9204 12.4506 13.0849 12.617 13.4003" stroke="#0321ED" stroke-width="1.5" stroke-linecap="round"/>
<path d="M7.63241 13.2905C7.63241 13.2921 7.63241 13.2937 7.62314 13.327C7.61387 13.3603 7.59532 13.4253 7.58209 13.5655C7.56887 13.7057 7.56152 13.9192 7.55396 14.1392" stroke="#0321ED" stroke-width="1.5" stroke-linecap="round"/>
<path d="M3.24485 11.2554C3.23525 11.2601 3.22566 11.2648 2.98326 11.4435C2.74087 11.6221 2.26597 11.9746 1.75443 12.3491" stroke="#0321ED" stroke-width="1.5" stroke-linecap="round"/>
<path d="M2.39772 7.97168C2.39408 7.97168 2.39044 7.97168 2.26174 7.97168C2.13303 7.97168 1.87936 7.97168 1.61801 7.97168" stroke="#0321ED" stroke-width="1.5" stroke-linecap="round"/>
<path d="M4.41727 3.58406C4.38404 3.55598 4.3508 3.52791 4.30637 3.48865C4.26194 3.44939 4.20733 3.39979 4.08352 3.25028C3.95971 3.10077 3.76837 2.85285 3.50534 2.56348" stroke="#0321ED" stroke-width="1.5" stroke-linecap="round"/>
</svg>
