<svg width="16" height="16" viewBox="0 0 16 16" fill="none" xmlns="http://www.w3.org/2000/svg">
<path d="M3.62952 6.96387C3.4624 6.9696 3.05132 7.01663 2.86385 7.11367C2.47783 7.3135 2.59863 8.00239 2.69241 8.41698C2.73854 8.62092 2.92931 8.75807 3.09333 8.87668C3.42928 9.11959 3.92519 9.05672 4.34056 8.95974C4.54459 8.9121 4.65206 8.68463 4.73655 8.48798C4.78914 8.26914 4.80626 8.04924 4.77721 7.77941C4.74952 7.61176 4.69557 7.38173 4.63998 7.14474" stroke="#0321ED" stroke-width="1.5" stroke-linecap="round"/>
<path d="M7.80535 7.13635C7.60433 7.11184 7.20009 7.08122 7.00913 7.12023C6.91486 7.13949 6.85007 7.23426 6.81099 7.32182C6.73361 7.49521 6.78621 7.71051 6.84665 7.9119C6.96828 8.3172 7.46687 8.62156 7.88775 8.80654C8.08705 8.89414 8.32046 8.80519 8.52467 8.69164C8.7346 8.57491 8.85394 8.36634 8.93937 8.17652C9.02825 7.97901 9.01542 7.74888 8.98857 7.53806C8.96148 7.43328 8.90702 7.33297 8.83243 7.26017C8.75784 7.18738 8.66476 7.14514 8.45595 7.0918" stroke="#0321ED" stroke-width="1.5" stroke-linecap="round"/>
<path d="M12.4903 7.03104C12.2663 6.96758 11.7268 6.91332 11.2642 6.99838C11.165 7.01663 11.0972 7.10888 11.0514 7.2014C10.8565 7.59488 11.1595 8.21878 11.4319 8.70165C11.6488 9.08612 12.3277 9.03897 12.8073 8.97975C13.0221 8.95322 13.1898 8.79307 13.3133 8.61769C13.4452 8.43037 13.4096 8.17951 13.3407 7.97672C13.2917 7.87986 13.2141 7.79525 13.1478 7.69521C13.0816 7.59518 13.0292 7.48229 12.9751 7.36597" stroke="#0321ED" stroke-width="1.5" stroke-linecap="round"/>
</svg>
