<svg width="16" height="16" viewBox="0 0 16 16" fill="none" xmlns="http://www.w3.org/2000/svg">
<path d="M1.57556 4.47266C1.5798 4.47266 1.58405 4.47266 3.2427 4.4862C4.90135 4.49975 8.21428 4.52684 10.1769 4.58233C12.6516 4.7209 13.3086 4.82705 13.5732 4.86441C13.7082 4.88121 13.8446 4.89361 14.3442 4.94892" stroke="#0321ED" stroke-width="1.5" stroke-linecap="round"/>
<path d="M5.33862 3.88715C5.51449 3.49759 6.09761 2.3415 6.52716 1.88153C7.01021 1.36427 8.49147 1.72122 9.20984 1.95323C9.54826 2.55062 9.68258 2.99668 9.70792 3.27558C9.71923 3.41528 9.72739 3.55123 9.67645 3.75609" stroke="#0321ED" stroke-width="1.5" stroke-linecap="round"/>
<path d="M3.18278 4.86475C3.18278 4.87095 3.17609 5.054 3.19696 6.32239C3.24766 9.40358 3.37541 11.603 3.44564 11.9161C3.52427 12.2666 3.70471 12.5436 3.88271 12.7412C4.06272 12.941 4.50541 13.1053 5.74355 13.2994C9.89221 13.9499 10.6013 13.574 11.386 13.4534C11.7316 13.4002 11.9673 13.1665 12.1757 12.9734C12.5435 12.4334 12.7503 11.5931 12.8493 10.0313C12.8853 8.98412 12.8923 7.41995 12.899 5.54922" stroke="#0321ED" stroke-width="1.5" stroke-linecap="round"/>
<path d="M9.40694 7.1582C9.40694 7.16963 9.40694 7.18105 9.42987 7.81398C9.4528 8.4469 9.49866 9.70098 9.401 11.1474" stroke="#0321ED" stroke-width="1.5" stroke-linecap="round"/>
<path d="M6.31984 7.17969C6.3174 7.18197 6.31495 7.18426 6.29565 7.25398C6.27636 7.3237 6.24029 7.4608 6.23289 8.06176C6.22549 8.66272 6.24785 9.7234 6.27088 10.8162" stroke="#0321ED" stroke-width="1.5" stroke-linecap="round"/>
</svg>
