<svg width="400" height="400" viewBox="0 0 400 400" fill="none" xmlns="http://www.w3.org/2000/svg">
<path d="M43.8148 370.154C43.8148 370.081 43.8148 370.007 44.0014 361.304C44.188 352.601 44.5613 335.27 44.8883 325.274C45.2154 315.278 45.485 313.143 44.8518 308.547C44.2185 303.952 42.6742 296.961 39.6738 286.046C36.6733 275.131 32.2634 260.504 29.377 251.699C26.4906 242.894 25.2612 240.353 23.77 237.05" stroke="#0321ED" stroke-width="3" stroke-linecap="round"/>
<path d="M53.4984 371.069C53.4984 370.775 53.4641 369.447 53.4269 357.213C53.3932 346.158 53.4534 325.259 53.114 311.38C52.7745 297.502 52.0651 291.276 48.7535 274.782C45.4419 258.288 39.5495 231.712 33.4785 204.332" stroke="#0321ED" stroke-width="3" stroke-linecap="round"/>
<path d="M72.1109 194.105C72.1033 194.14 72.0958 194.174 70.4004 202.76C68.7051 211.346 65.3223 228.483 63.9507 257.346C62.5792 286.209 63.3215 326.279 64.0863 367.499" stroke="#0321ED" stroke-width="3" stroke-linecap="round"/>
<path d="M87.7986 218.298C87.7986 218.305 87.7986 218.313 85.5792 227.632C83.3599 236.951 78.9212 255.581 76.5372 266.085C74.1532 276.59 73.9584 278.405 73.2721 293.993C72.5859 309.581 71.4141 338.888 70.1694 370.349" stroke="#0321ED" stroke-width="3" stroke-linecap="round"/>
<path d="M94.7958 254.702C94.7121 254.773 91.671 259.167 85.5826 268.414C79.4002 278.597 75.8674 284.512 75.2149 285.444C74.9095 285.914 74.6563 286.379 74.3955 286.859" stroke="#0321ED" stroke-width="3" stroke-linecap="round"/>
<path d="M324.983 263.41C325.391 262.682 327.212 260.509 330.017 258.999C336.5 255.51 344.63 257.699 348.281 258.873C352.594 260.26 355.065 265.875 356.07 269.284C356.908 272.124 356.33 274.649 355.9 276.005C354.784 279.531 351.313 282.059 346.154 285.106C341.79 287.684 333.636 291.929 324.93 295.658C316.224 299.387 307.151 302.361 302.441 303.536C297.73 304.711 297.658 303.996 298.618 300.531C299.578 297.065 301.574 290.869 302.365 287.541C303.156 284.213 302.681 283.94 298.322 283.268C293.963 282.595 285.734 281.532 281.477 280.681C277.221 279.83 277.187 279.223 277.933 277.231C279.973 271.785 283.524 265.856 287.461 260.474C291.915 254.384 296.55 250.289 299.38 248.203C303.806 244.941 312.146 244.194 320.893 244.471C327.693 244.686 332.197 247.066 333.607 248.054C334.708 249.045 335.711 250.607 336.555 252.479C336.879 253.297 336.989 253.846 337.479 254.537" stroke="#0321ED" stroke-width="3" stroke-linecap="round"/>
<path d="M313.611 253.511C313.666 253.511 313.72 253.511 314.22 253.474C314.72 253.437 315.664 253.362 316.636 253.286" stroke="#0321ED" stroke-width="3" stroke-linecap="round"/>
<path d="M298.462 262.787C298.462 262.773 298.462 262.759 298.745 262.706C299.028 262.653 299.593 262.561 300.631 262.483" stroke="#0321ED" stroke-width="3" stroke-linecap="round"/>
<path d="M292.238 273.931C292.265 273.931 292.292 273.931 292.62 273.885C292.948 273.839 293.578 273.746 294.542 273.645" stroke="#0321ED" stroke-width="3" stroke-linecap="round"/>
<path d="M313.299 292.168C313.473 292.168 313.646 292.168 314.005 292.138C314.363 292.108 314.901 292.049 315.455 291.987" stroke="#0321ED" stroke-width="3" stroke-linecap="round"/>
<path d="M328.432 285.052C328.566 284.968 328.7 284.885 329.006 284.709C329.312 284.534 329.787 284.27 330.276 283.998" stroke="#0321ED" stroke-width="3" stroke-linecap="round"/>
<path d="M343.689 275.237C343.723 275.22 343.758 275.202 344.206 274.979C344.654 274.757 345.515 274.33 346.822 273.572" stroke="#0321ED" stroke-width="3" stroke-linecap="round"/>
<path d="M114.359 133.949C114.359 133.714 114.111 124.53 113.092 108.179C112.321 100.891 111.034 95.6507 109.796 91.486C108.558 87.3212 107.408 84.3905 105.883 80.1152" stroke="#0321ED" stroke-width="3" stroke-linecap="round"/>
<path d="M90.9294 20.5046C89.211 20.5723 85.2551 21.4525 83.1269 23.0328C82.1699 23.7435 81.7699 25.483 81.2767 28.3785C80.5095 32.8824 81.8437 40.2822 84.483 50.1818C87.5562 61.7089 91.6959 69.2345 93.5592 72.4649C95.3228 75.5225 97.1002 77.0567 98.089 77.5833C100.994 79.1299 105.172 77.5932 107.178 76.4799C109.97 74.9297 106.937 64.1191 103.797 50.3637C101.513 40.3615 100.155 32.2808 98.8969 27.9603C97.3788 23.8079 96.1609 21.2989 95.2868 20.4232C94.7858 19.9776 94.1684 19.5297 92.2849 19.2178" stroke="#0321ED" stroke-width="3" stroke-linecap="round"/>
<path d="M89.1767 19.7269C89.163 19.7269 89.1493 19.7269 88.9295 19.4786C88.7098 19.2302 88.2845 18.7336 87.8955 18.1518C87.5066 17.5701 87.167 16.9183 86.1914 15.0723" stroke="#0321ED" stroke-width="3" stroke-linecap="round"/>
<path d="M98.3033 32.2334C98.2313 32.3192 98.1592 32.4049 97.8933 32.6594C97.6274 32.9138 97.1698 33.3343 96.6981 33.6724C96.2264 34.0105 95.7544 34.2533 94.501 34.7426" stroke="#0321ED" stroke-width="3" stroke-linecap="round"/>
<path d="M104.502 59.3369C104.45 59.3541 104.398 59.3712 103.638 59.9714C102.878 60.5716 101.411 61.7544 99.6377 63.0977" stroke="#0321ED" stroke-width="3" stroke-linecap="round"/>
<path d="M127.728 133.502C128.234 132.858 129.329 131 131.775 120.301C134.073 110.251 138.215 90.7517 142.874 74.7403C147.534 58.729 152.509 46.7789 156.642 38.1043C160.775 29.4298 163.915 24.3929 167.732 18.4736" stroke="#0321ED" stroke-width="3" stroke-linecap="round"/>
<path d="M153.515 46.2959C153.472 46.4654 153.43 46.6348 152.933 48.9689C152.436 51.3029 151.485 55.7965 150.248 64.8256C149.011 73.8548 147.515 87.2833 146.388 102.605" stroke="#0321ED" stroke-width="3" stroke-linecap="round"/>
<path d="M139.68 135.25C140.102 134.777 140.524 134.304 144.034 130.123C147.545 125.943 154.132 118.068 158.974 111.262C163.816 104.455 166.713 98.9542 168.845 93.7876C170.977 88.621 172.254 83.9553 173.133 78.7242C174.011 73.4931 174.452 67.8381 174.907 62.0117" stroke="#0321ED" stroke-width="3" stroke-linecap="round"/>
<path d="M40.1206 389.069C40.1206 389.042 48.5287 390.592 61.6874 392.937C67.2364 393.925 68.855 393.431 70.2808 392.963C71.7507 392.48 72.6356 391.323 73.0202 390.171C73.7501 387.983 72.8106 385.401 74.1797 383.316C74.9293 382.175 84.4535 382.78 97.4045 383.2C104.684 383.436 108.881 381.24 113.566 378.077C116.615 376.019 118.026 372.814 118.135 370.32C118.477 362.509 99.9367 363.941 99.6984 362.751C99.4733 361.627 100.811 360.414 102.7 358.674C105.801 355.816 113.662 351.641 122.17 346.793C125.877 344.68 126.794 343.705 127.566 342.797C127.964 342.329 128.246 341.744 128.071 341.282C127.656 340.187 123.293 339.594 114.847 338.746C102.603 337.517 93.8214 337.891 91.435 337.201C90.4414 336.913 90.0214 336.369 89.712 335.863C89.4026 335.358 89.2503 334.811 89.1009 333.496C88.9514 332.182 88.8094 330.118 88.5882 327.669" stroke="#0321ED" stroke-width="3" stroke-linecap="round"/>
<path d="M90.7172 128.72C88.9419 129.738 83.9761 133.117 80.7222 137.505C79.2068 139.549 78.8574 141.541 78.617 142.857C78.5039 143.477 78.5983 144.026 78.9801 144.499C79.8557 145.585 81.7524 146.067 87.5925 146.801C101.254 148.517 110.589 149.252 110.787 151.021C111.236 155.019 109.129 158.866 109.353 159.932C109.869 162.39 114.414 162.983 119.407 163.736C125.59 164.669 133.364 163.094 141.191 161.246C145.365 160.261 149.842 158.755 157.883 156.813C165.925 154.872 177.368 152.432 184.41 150.75C193.821 148.503 196.614 146.818 197.383 145.558C198.263 144.117 197.458 142.432 196.662 141.157C193.129 135.502 185.611 131.163 183.623 128.053C183.274 127.219 183.034 126.305 182.869 125.401C182.703 124.498 182.619 123.634 182.532 122.743" stroke="#0321ED" stroke-width="3" stroke-linecap="round"/>
<path d="M254.098 275.231C250.479 276.699 241.929 281.125 237.696 284.558C233.031 288.34 231.895 294.733 231.464 297.304C231.26 298.525 231.69 299.769 232.485 301.023C235.829 306.292 246.479 307.309 248.896 309.181C250.997 310.808 250.252 314.473 249.711 318.121C249.51 319.477 249.964 320.57 250.613 321.537C252.334 323.246 254.766 324.629 258.899 325.653C260.858 325.966 264.018 326.394 267.274 326.836" stroke="#0321ED" stroke-width="3" stroke-linecap="round"/>
<path d="M333.823 197.592C333.087 197.553 330.618 197.183 320.685 194.67C312.798 192.675 299.311 188.539 290.133 186.262C276.674 182.922 270.987 183.135 268.457 183.561C264.856 184.168 261.549 185.541 259.305 186.54C257.678 187.265 251.098 193.321 240.45 202.648C228.804 212.85 220.999 213.543 217.491 213.831C216.272 213.931 214.386 213.66 209.857 212.691C205.328 211.723 198.21 209.917 189.738 208.279C181.266 206.642 171.655 205.229 165.223 204.492C151.906 202.965 146.775 205.952 143.633 207.939C141.055 209.569 140.267 213.045 139.888 220.798C140.401 224.941 141.344 227.679 142.402 229.661C143.011 230.704 143.767 231.824 144.546 232.977" stroke="#0321ED" stroke-width="3" stroke-linecap="round"/>
<path d="M15.7017 162.964C16.8745 163.93 23.6842 167.722 29.8989 169.374C31.3164 169.75 33.0337 169.48 39.9331 168.908C46.8326 168.335 58.9083 167.2 65.4213 166.646C71.9344 166.091 72.5189 166.152 73.0316 166.397C74.0709 166.892 74.5478 168.098 74.7507 169.321C74.8545 169.948 74.7786 170.609 74.5699 171.149C73.1981 174.703 66.1647 177.728 62.3349 178.888C58.612 180.015 49.1912 179.552 37.4685 179.572C32.5809 179.654 29.8477 179.882 27.2741 180.408C24.7005 180.933 22.3694 181.75 19.9676 182.591" stroke="#0321ED" stroke-width="3" stroke-linecap="round"/>
<path d="M110.93 194.148C112.595 192.041 114.629 190.213 120.625 187.714C123.592 186.477 128.589 185.574 140.976 184.822C153.363 184.07 173.102 183.816 185.709 182.979C203.298 181.812 208.822 179.008 210.667 177.993C213.885 176.223 218.769 171.697 223.905 166.537C229.457 160.96 234.834 157.241 240.601 155.282C242.973 154.704 246.486 153.982 249.194 153.524C251.903 153.065 253.701 152.892 255.554 152.713" stroke="#0321ED" stroke-width="3" stroke-linecap="round"/>
<path d="M300.438 150.064C301.91 149.61 309.623 147.944 321.568 145.762C333.654 143.555 339.227 146.961 341.948 148.758C345.04 150.799 345.323 154.44 345.383 158.63C345.425 161.575 342.224 162.946 336.962 165.551C334.325 166.856 333.111 168.591 332.627 169.723C332.18 170.767 332.535 171.994 333.018 173.207C333.773 174.455 335.605 176.098 339.468 178.366C341.957 179.638 345.517 181.156 349.186 182.719" stroke="#0321ED" stroke-width="3" stroke-linecap="round"/>
<path d="M138.133 297.716C141.837 298.287 147.697 298.537 156.135 297.847C169.305 296.77 178.927 295.101 182.361 295.287C185.642 295.465 187.679 296.493 188.459 297.472C190.806 300.419 187.936 306.42 186.234 309.876C185.546 311.271 184.077 312.025 182.696 312.798C174.92 317.152 160.601 314.251 159.656 314.695C159.186 314.916 158.899 315.411 158.734 315.926C158.568 316.441 158.575 317.034 158.665 317.624C158.755 318.214 158.928 318.783 159.855 320.318" stroke="#0321ED" stroke-width="3" stroke-linecap="round"/>
<path d="M151.218 359.25C151.506 359.25 158.061 361.062 168.396 363.912C172.313 364.992 173.58 365.159 181.597 364.746C189.614 364.334 204.354 363.293 213.607 362.911C226.169 362.393 230.537 363.462 232.253 364.19C233.79 364.841 234.502 366.213 235.014 367.506C236.499 371.258 235.131 376.259 233.908 379.863C232.234 381.875 226.365 384.901 216.811 387.98C215.137 388.404 214.594 388.494 213.907 388.585" stroke="#0321ED" stroke-width="3" stroke-linecap="round"/>
<path d="M376.253 327.416C375.04 329.17 368.912 335.593 360.456 341.288C357.159 343.509 351.044 345.609 345.133 347.638C339.221 349.667 333.411 351.066 326.55 351.813C319.689 352.559 311.953 352.61 307.286 352.508C302.618 352.406 301.254 352.15 299.849 351.887" stroke="#0321ED" stroke-width="3" stroke-linecap="round"/>
<path d="M224.121 330.669C224.619 331.626 228.808 336.816 234.605 341.24C239.419 344.913 246.967 344.941 252.617 346.252C254.256 346.632 255.968 349.304 258.9 353.068C262.3 357.434 269.598 363.063 277.999 368.916C281.43 371.145 283.169 371.87 287.524 373.114C291.879 374.358 298.797 376.099 307.192 377.943" stroke="#0321ED" stroke-width="3" stroke-linecap="round"/>
<path d="M337.049 217.039C335.812 216.79 329.379 216.334 316.757 216.066C309.931 215.921 302.246 216.586 294.061 217.771C285.876 218.956 277.422 220.852 271.551 222.435C262.544 224.864 257.844 227.488 254.762 229.425C252.212 231.027 246.535 236.641 238.97 244.01C233.295 249.537 226.423 250.64 216.158 251.448C209.031 252.009 197.933 251.334 191.936 251.218C183.585 251.057 179.714 253.071 173.314 258.028C169.316 261.656 166.506 264.104 165.16 264.911C164.524 265.257 163.985 265.476 163.429 265.702" stroke="#0321ED" stroke-width="3" stroke-linecap="round"/>
<path d="M141.041 278.127C137.504 278.126 130.895 277.753 128.069 276.762C126.907 276.354 125.989 275.425 125.1 274.323C122.95 271.66 123.919 267.409 125.069 264.768C126.189 262.196 136.759 262.172 147.967 259.361C151.76 257.295 154.564 254.688 155.36 252.378C155.457 251.774 155.479 251.229 155.502 250.667" stroke="#0321ED" stroke-width="3" stroke-linecap="round"/>
<path d="M124.913 234.395C124.07 234.157 120.802 232.871 117.593 230.608C114.987 228.77 114.808 224.954 114.749 214.075C114.737 211.783 115.034 211.156 115.412 210.569C116.349 209.454 117.425 208.649 118.433 208.167C118.94 207.945 119.439 207.77 119.953 207.59" stroke="#0321ED" stroke-width="3" stroke-linecap="round"/>
<path d="M212.171 115.313C212.298 116.243 213.237 118.829 214.632 121.162C216.653 124.543 221.04 127.003 225.07 128.033C229.914 129.27 234.191 127.989 235.953 127.588C237.621 127.209 242.339 123.453 248.641 118.335C256.141 114.394 265.489 111.243 269.706 112.099C272.254 112.887 276.805 114.378 281.754 115.968" stroke="#0321ED" stroke-width="3" stroke-linecap="round"/>
<path d="M376.604 136.019C376.388 135.163 377.107 129.186 379.061 123.441C381.812 115.354 387.547 112.218 388.173 109.823C388.484 108.635 387.892 107.396 387.245 106.238C385.582 103.262 381.497 102.475 362.051 100.234C354.712 99.3883 345.829 100.004 340.931 100.116C332.847 100.3 327.243 103.549 323.331 106.545C319.727 110.018 318.272 110.955 317.031 111.424C316.391 111.633 315.731 111.784 314.185 112.018" stroke="#0321ED" stroke-width="3" stroke-linecap="round"/>
<path d="M210.007 88.4932C211.737 87.1036 219.007 83.994 228.237 82.2818C236.58 80.7341 241.015 83.7261 247.808 87.0579C249.728 87.9995 254.901 88.8326 262.986 89.8767C268.601 90.1834 276.624 88.7663 286.083 86.6698C289.738 85.9529 291.07 85.9405 292.442 85.9278" stroke="#0321ED" stroke-width="3" stroke-linecap="round"/>
<path d="M317.68 83.7736C319.605 81.9019 323.803 78.8797 331.334 75.9854C336.021 74.1844 343.298 73.8247 351.339 73.6291C357.052 73.4901 359.872 74.3582 360.686 74.999C360.665 77.7349 359.762 80.8051 360.436 82.8052C360.75 83.244 361.18 83.6042 362.017 84.0938" stroke="#0321ED" stroke-width="3" stroke-linecap="round"/>
<path d="M11.3301 84.0214C12.4935 83.1437 15.378 81.7142 18.7945 81.1019C20.7538 80.7507 22.9264 81.3158 27.1166 82.6643C35.4021 85.3308 43.6205 87.646 49.1615 88.0969C57.5932 87.8678 63.2651 86.7536 66.9316 86.0077C68.7191 85.7309 70.358 85.661 72.0466 85.5889" stroke="#0321ED" stroke-width="3" stroke-linecap="round"/>
<path d="M58.9641 121.778C58.8818 121.778 54.6038 122.195 46.0348 123.454C37.2414 124.746 31.8079 127.411 29.7985 128.484C28.3315 129.268 27.6226 130.455 27.1693 131.605C26.7312 132.717 27.1441 133.931 27.8117 134.9C29.4343 137.256 35.9634 136.844 40.0362 137.719C42.2656 139.278 43.5294 140.818 44.4978 141.851C45.0366 142.341 45.6719 142.762 46.3264 143.195" stroke="#0321ED" stroke-width="3" stroke-linecap="round"/>
</svg>
